<?xml version="1.0" encoding="utf-8"?>
<!-- Generator: Adobe Illustrator 26.0.1, SVG Export Plug-In . SVG Version: 6.00 Build 0)  -->
<svg version="1.1" id="Layer_1" xmlns="http://www.w3.org/2000/svg" xmlns:xlink="http://www.w3.org/1999/xlink" x="0px" y="0px"
	 viewBox="0 0 722 92" style="enable-background:new 0 0 722 92;" xml:space="preserve">
<style type="text/css">
	.st0{fill:#001271;}
	.st1{fill:#0052CC;}
</style>
<g>
	<g>
		<g>
			<g>
				<path class="st0" d="M216.3,49.5v40.3h-21.9V52.3c0-6.7-2.5-10-7.1-10c-6,0-9.1,4.2-9.1,12.3v35.3h-21.3V52.2c0-6.5-2.4-10-7-10
					c-6,0-9.2,4.3-9.2,12.3v35.3h-21.9V25.5h15.4l3.1,6.9c4.6-5.4,11.3-8.8,18.6-8.8c7.8,0,14.3,3.5,18.2,9.5
					c4.6-5.8,11.6-9.5,19.6-9.5C207.2,23.6,216.3,34.4,216.3,49.5z"/>
				<path class="st0" d="M293.7,57.1c0,1.9-0.2,3.9-0.5,5.9H246c1.5,7.4,6.1,11.2,13,11.2c5.1,0,9.4-2.3,11.5-6h21.8
					C287.9,82.8,275,92,259,92c-19.8,0-34.6-14.7-34.6-34.3c0-19.7,14.6-34.2,34.6-34.2C279.5,23.5,293.7,38.2,293.7,57.1
					L293.7,57.1z M246.4,50.7h25.7c-1.9-6.4-6.5-9.9-13.1-9.9C252.6,40.8,248.2,44.3,246.4,50.7z"/>
				<path class="st0" d="M344.5,70.5v19.4h-15.1c-14.1,0-22.6-8.7-22.6-23V42.6h-11.6v-5.2l28.5-30.7h4.5v18.8h16v17.1h-15.4v20.5
					c0,4.6,2.7,7.4,7.4,7.4L344.5,70.5z"/>
				<path class="st0" d="M420.8,25.5v64.3h-16.9l-1.9-4.6c-5.3,4.3-11.9,6.8-19.2,6.8c-19.5,0-33.4-14.4-33.4-34.4
					c0-19.9,13.9-34.1,33.4-34.1c7.5,0,14.2,2.5,19.4,6.9l2.2-4.9L420.8,25.5L420.8,25.5z M399.9,57.7c0-8.4-6.1-14.6-14.2-14.6
					c-8.3,0-14.2,6.3-14.2,14.6c0,8.4,6.1,14.7,14.2,14.7C393.9,72.4,399.9,66.1,399.9,57.7z"/>
				<path class="st0" d="M433.4,0h21.9v89.9h-21.9V0z"/>
				<path class="st0" d="M492.5,92c-17.3,0-27.9-9.2-28.1-23.2h21.1c0,4.7,3.2,6.9,7.4,6.9c3.2,0,6.2-1.7,6.2-5
					c0-3.7-4.8-4.8-10.9-5.8c-9.9-1.6-22.9-4.6-22.9-20.2c0-12.9,10.9-21.2,27.2-21.2c16.2,0,26.7,8.7,27,21.8h-20.5
					c0-4.1-2.7-6-6.7-6c-3.5,0-5.9,1.7-5.9,4.7c0,3.7,4.9,4.5,10.9,5.6c10.1,1.8,23.4,3.9,23.4,20.2C520.6,83.2,509.4,92,492.5,92
					L492.5,92z"/>
				<path class="st0" d="M526,57.7c0-20,14.9-34.3,35.7-34.3c20.7,0,35.7,14.4,35.7,34.3c0,19.9-15,34.3-35.7,34.3
					C540.9,92,526,77.6,526,57.7z M561.6,72.1c8,0,13.7-5.8,13.7-14.4c0-8.5-5.7-14.4-13.7-14.4c-8,0-13.7,5.8-13.7,14.4
					S553.7,72.1,561.6,72.1L561.6,72.1z"/>
				<path class="st0" d="M647.8,42.6h-14.3v47.3h-21.9V42.6h-10.5l0-17.1h10.8v-5.1c0-12.9,7-20.4,20.5-20.4h15.3v17H638
					c-3.3,0-5.2,1.9-5.2,5.2v3.3h15V42.6z"/>
				<path class="st0" d="M700.8,70.5v19.4h-15.1c-14.1,0-22.6-8.7-22.6-23V42.6h-11.6v-5.2L680,6.8h4.5v18.8h16v17.1h-15.4v20.5
					c0,4.6,2.7,7.4,7.4,7.4L700.8,70.5z"/>
			</g>
			<g>
				<path class="st1" d="M77,6.7h30.4l-77,83.4H0L77,6.7z"/>
			</g>
		</g>
	</g>
	<g>
		<path class="st0" d="M705.5,34.5v-1.2c0-4.3,3.5-7.8,8.3-7.8c4.7,0,8.3,3.5,8.3,7.8v1.2c0,4.6-3.4,8-8.3,8
			C709,42.5,705.5,39.1,705.5,34.5z M719.9,34.5v-1.1c0-3.2-2.6-5.8-6.2-5.8c-3.6,0-6.2,2.6-6.2,5.8v1.1c0,3.4,2.6,6,6.2,6
			C717.3,40.5,719.9,37.9,719.9,34.5z M710.4,37.8v-8h4.1c1.8,0,2.9,1.1,2.9,2.6c0,1.2-0.7,2.1-1.5,2.4l1.9,3h-2.5l-1.6-2.7h-1v2.7
			H710.4z M712.6,33.6h1.2c0.6,0,1.3-0.2,1.3-1c0-0.6-0.4-1-1.2-1h-1.3V33.6z"/>
	</g>
</g>
</svg>
